<mxfile host="app.diagrams.net" agent="Mozilla/5.0 (Windows NT 10.0; Win64; x64) AppleWebKit/537.36 (KHTML, like Gecko) Chrome/139.0.0.0 Safari/537.36 Edg/139.0.0.0" version="28.1.1">
  <diagram name="Page-1" id="Kl7iuOKc_XEdfUBPpo8f">
    <mxGraphModel dx="925" dy="551" grid="1" gridSize="10" guides="1" tooltips="1" connect="1" arrows="1" fold="1" page="1" pageScale="1" pageWidth="850" pageHeight="1100" math="0" shadow="0">
      <root>
        <mxCell id="0" />
        <mxCell id="1" parent="0" />
        <mxCell id="62GbrE6TORd7xZNesTIv-1" value="" style="rounded=1;whiteSpace=wrap;html=1;fillColor=#f8cecc;arcSize=0;strokeColor=#b85450;" parent="1" vertex="1">
          <mxGeometry x="100" y="100" width="520" height="230" as="geometry" />
        </mxCell>
        <mxCell id="62GbrE6TORd7xZNesTIv-2" value="" style="image;sketch=0;aspect=fixed;html=1;points=[];align=center;fontSize=12;image=img/lib/mscae/Kubernetes.svg;" parent="1" vertex="1">
          <mxGeometry x="110" y="110" width="50" height="48" as="geometry" />
        </mxCell>
        <mxCell id="62GbrE6TORd7xZNesTIv-3" value="&lt;b&gt;&lt;font style=&quot;font-size: 14px;&quot;&gt;CloudCore&lt;/font&gt;&lt;/b&gt;" style="rounded=1;whiteSpace=wrap;html=1;fillColor=#fff2cc;arcSize=4;verticalAlign=top;strokeColor=#d6b656;" parent="1" vertex="1">
          <mxGeometry x="175" y="110" width="245" height="210" as="geometry" />
        </mxCell>
        <mxCell id="62GbrE6TORd7xZNesTIv-4" value="KubeEdge Architecture" style="text;html=1;align=center;verticalAlign=middle;whiteSpace=wrap;rounded=0;fontStyle=1;fontSize=16;" parent="1" vertex="1">
          <mxGeometry x="310" y="30" width="230" height="30" as="geometry" />
        </mxCell>
        <mxCell id="62GbrE6TORd7xZNesTIv-8" value="&lt;b&gt;&lt;font style=&quot;font-size: 14px;&quot;&gt;EdgeCore&lt;/font&gt;&lt;/b&gt;" style="rounded=1;whiteSpace=wrap;html=1;fillColor=#d5e8d4;arcSize=0;verticalAlign=top;strokeColor=#82b366;" parent="1" vertex="1">
          <mxGeometry x="100" y="355" width="520" height="275" as="geometry" />
        </mxCell>
        <mxCell id="62GbrE6TORd7xZNesTIv-9" value="&lt;div style=&quot;&quot;&gt;&lt;font color=&quot;rgba(0, 0, 0, 0.88)&quot; face=&quot;ui-monospace, SFMono-Regular, SF Mono, Menlo, Consolas, Liberation Mono, monospace&quot;&gt;&lt;span style=&quot;font-size: 13.6px; letter-spacing: 0.25px; white-space-collapse: preserve-breaks; background-color: rgba(175, 184, 193, 0.2);&quot;&gt;CloudHub&lt;br&gt;&lt;/span&gt;&lt;/font&gt;&lt;/div&gt;&lt;div style=&quot;&quot;&gt;&lt;font color=&quot;rgba(0, 0, 0, 0.88)&quot; face=&quot;ui-monospace, SFMono-Regular, SF Mono, Menlo, Consolas, Liberation Mono, monospace&quot; style=&quot;font-size: 9px;&quot;&gt;&lt;span style=&quot;letter-spacing: 0.25px; white-space-collapse: preserve-breaks; background-color: rgba(175, 184, 193, 0.2);&quot;&gt;(WebSocket Server)&lt;/span&gt;&lt;/font&gt;&lt;/div&gt;" style="rounded=1;whiteSpace=wrap;html=1;align=center;" parent="1" vertex="1">
          <mxGeometry x="200" y="260" width="100" height="40" as="geometry" />
        </mxCell>
        <mxCell id="62GbrE6TORd7xZNesTIv-31" style="edgeStyle=orthogonalEdgeStyle;rounded=0;orthogonalLoop=1;jettySize=auto;html=1;entryX=0.5;entryY=1;entryDx=0;entryDy=0;shadow=0;" parent="1" source="62GbrE6TORd7xZNesTIv-10" target="62GbrE6TORd7xZNesTIv-9" edge="1">
          <mxGeometry relative="1" as="geometry" />
        </mxCell>
        <mxCell id="kMom09rq4pYjh6CpPgFS-1" style="edgeStyle=orthogonalEdgeStyle;rounded=0;orthogonalLoop=1;jettySize=auto;html=1;entryX=0.5;entryY=0;entryDx=0;entryDy=0;" edge="1" parent="1" source="62GbrE6TORd7xZNesTIv-10" target="62GbrE6TORd7xZNesTIv-27">
          <mxGeometry relative="1" as="geometry" />
        </mxCell>
        <mxCell id="kMom09rq4pYjh6CpPgFS-9" style="edgeStyle=orthogonalEdgeStyle;rounded=0;orthogonalLoop=1;jettySize=auto;html=1;entryX=0;entryY=0.5;entryDx=0;entryDy=0;shape=link;" edge="1" parent="1" source="62GbrE6TORd7xZNesTIv-10" target="62GbrE6TORd7xZNesTIv-24">
          <mxGeometry relative="1" as="geometry">
            <Array as="points">
              <mxPoint x="200" y="460" />
              <mxPoint x="280" y="460" />
              <mxPoint x="280" y="540" />
              <mxPoint x="380" y="540" />
              <mxPoint x="380" y="580" />
            </Array>
          </mxGeometry>
        </mxCell>
        <mxCell id="62GbrE6TORd7xZNesTIv-10" value="&lt;div style=&quot;&quot;&gt;&lt;font color=&quot;rgba(0, 0, 0, 0.88)&quot; face=&quot;ui-monospace, SFMono-Regular, SF Mono, Menlo, Consolas, Liberation Mono, monospace&quot;&gt;&lt;span style=&quot;letter-spacing: 0.25px; white-space-collapse: preserve-breaks; background-color: rgba(175, 184, 193, 0.2);&quot;&gt;&lt;span style=&quot;font-size: 13.6px;&quot;&gt;EdgeHub&lt;br&gt;&lt;/span&gt;&lt;font style=&quot;font-size: 9px;&quot;&gt;(WebSocket Client)&lt;/font&gt;&lt;/span&gt;&lt;/font&gt;&lt;/div&gt;" style="rounded=1;whiteSpace=wrap;html=1;align=center;" parent="1" vertex="1">
          <mxGeometry x="150" y="410" width="100" height="40" as="geometry" />
        </mxCell>
        <mxCell id="62GbrE6TORd7xZNesTIv-14" style="edgeStyle=orthogonalEdgeStyle;rounded=0;orthogonalLoop=1;jettySize=auto;html=1;entryX=0;entryY=0.5;entryDx=0;entryDy=0;" parent="1" source="62GbrE6TORd7xZNesTIv-12" target="62GbrE6TORd7xZNesTIv-13" edge="1">
          <mxGeometry relative="1" as="geometry" />
        </mxCell>
        <mxCell id="62GbrE6TORd7xZNesTIv-21" value="create/update" style="edgeLabel;html=1;align=center;verticalAlign=middle;resizable=0;points=[];" parent="62GbrE6TORd7xZNesTIv-14" vertex="1" connectable="0">
          <mxGeometry x="-0.1554" y="1" relative="1" as="geometry">
            <mxPoint as="offset" />
          </mxGeometry>
        </mxCell>
        <mxCell id="62GbrE6TORd7xZNesTIv-12" value="&lt;div&gt;&lt;font color=&quot;rgba(0, 0, 0, 0.88)&quot; face=&quot;ui-monospace, SFMono-Regular, SF Mono, Menlo, Consolas, Liberation Mono, monospace&quot;&gt;&lt;span style=&quot;letter-spacing: 0.25px; white-space-collapse: preserve-breaks; background-color: rgba(175, 184, 193, 0.2);&quot;&gt;Edge&lt;br/&gt;Controller&lt;/span&gt;&lt;/font&gt;&lt;/div&gt;" style="rounded=1;whiteSpace=wrap;html=1;align=center;fontSize=13;" parent="1" vertex="1">
          <mxGeometry x="200" y="158" width="100" height="40" as="geometry" />
        </mxCell>
        <mxCell id="62GbrE6TORd7xZNesTIv-13" value="K8s API Server" style="rounded=1;whiteSpace=wrap;html=1;arcSize=14;" parent="1" vertex="1">
          <mxGeometry x="485" y="130" width="110" height="40" as="geometry" />
        </mxCell>
        <mxCell id="kMom09rq4pYjh6CpPgFS-12" style="edgeStyle=orthogonalEdgeStyle;rounded=0;orthogonalLoop=1;jettySize=auto;html=1;entryX=0.75;entryY=0;entryDx=0;entryDy=0;strokeColor=#b85450;endArrow=classicThin;endFill=1;fillColor=#f8cecc;" edge="1" parent="1" source="62GbrE6TORd7xZNesTIv-15" target="62GbrE6TORd7xZNesTIv-10">
          <mxGeometry relative="1" as="geometry">
            <Array as="points">
              <mxPoint x="340" y="350" />
              <mxPoint x="225" y="350" />
            </Array>
          </mxGeometry>
        </mxCell>
        <mxCell id="62GbrE6TORd7xZNesTIv-15" value="&lt;font color=&quot;rgba(0, 0, 0, 0.88)&quot; face=&quot;ui-monospace, SFMono-Regular, SF Mono, Menlo, Consolas, Liberation Mono, monospace&quot;&gt;&lt;span style=&quot;letter-spacing: 0.25px; background-color: rgba(175, 184, 193, 0.2);&quot;&gt;&lt;span style=&quot;white-space-collapse: preserve-breaks;&quot;&gt;Device&lt;/span&gt;&lt;br&gt;&lt;span style=&quot;white-space-collapse: preserve-breaks;&quot;&gt;Controller&lt;/span&gt;&lt;br/&gt;&lt;div style=&quot;white-space-collapse: preserve-breaks; background-color: light-dark(rgba(175, 184, 193, 0.2), rgb(73, 81, 89)); text-align: center;&quot;&gt;&lt;span style=&quot;color: light-dark(rgba(0, 0, 0, 0.88), rgb(237, 237, 237)); white-space-collapse: collapse; font-family: Inter, -apple-system, BlinkMacSystemFont, &amp;quot;Segoe UI&amp;quot;, &amp;quot;SF Pro SC&amp;quot;, &amp;quot;SF Pro Display&amp;quot;, &amp;quot;SF Pro Icons&amp;quot;, &amp;quot;PingFang SC&amp;quot;, &amp;quot;Hiragino Sans GB&amp;quot;, &amp;quot;Microsoft YaHei&amp;quot;, &amp;quot;Helvetica Neue&amp;quot;, Helvetica, Arial, &amp;quot;Times New Roman&amp;quot;, &amp;quot;Arial Unicode MS&amp;quot;, &amp;quot;Lucida Sans Unicode&amp;quot;, KaTeX_Main, sans-serif; text-align: start; background-color: rgb(255, 255, 255);&quot;&gt;&lt;font style=&quot;font-size: 8px;&quot;&gt;管理边缘设备 CRD&lt;/font&gt;&lt;/span&gt;&lt;span style=&quot;background-color: light-dark(rgba(175, 184, 193, 0.2), rgb(73, 81, 89)); color: light-dark(rgba(0, 0, 0, 0.88), rgb(237, 237, 237));&quot;&gt;&amp;nbsp;&lt;/span&gt;&lt;/div&gt;&lt;/span&gt;&lt;/font&gt;" style="rounded=1;whiteSpace=wrap;html=1;align=center;fontSize=13;" parent="1" vertex="1">
          <mxGeometry x="300" y="210" width="100" height="50" as="geometry" />
        </mxCell>
        <mxCell id="62GbrE6TORd7xZNesTIv-16" value="" style="group" parent="1" vertex="1" connectable="0">
          <mxGeometry x="485" y="260" width="110" height="60" as="geometry" />
        </mxCell>
        <mxCell id="62GbrE6TORd7xZNesTIv-6" value="" style="shape=cylinder3;whiteSpace=wrap;html=1;boundedLbl=1;backgroundOutline=1;size=10.91925048828125;rotation=-90;" parent="62GbrE6TORd7xZNesTIv-16" vertex="1">
          <mxGeometry x="25" y="-25" width="60" height="110" as="geometry" />
        </mxCell>
        <mxCell id="62GbrE6TORd7xZNesTIv-7" value="MQTT Server" style="text;html=1;align=center;verticalAlign=middle;whiteSpace=wrap;rounded=0;" parent="62GbrE6TORd7xZNesTIv-16" vertex="1">
          <mxGeometry x="25" y="15" width="80" height="30" as="geometry" />
        </mxCell>
        <mxCell id="62GbrE6TORd7xZNesTIv-19" style="edgeStyle=orthogonalEdgeStyle;rounded=0;orthogonalLoop=1;jettySize=auto;html=1;entryX=1;entryY=0.5;entryDx=0;entryDy=0;" parent="1" source="62GbrE6TORd7xZNesTIv-17" target="62GbrE6TORd7xZNesTIv-15" edge="1">
          <mxGeometry relative="1" as="geometry">
            <Array as="points">
              <mxPoint x="460" y="220" />
              <mxPoint x="460" y="235" />
            </Array>
          </mxGeometry>
        </mxCell>
        <mxCell id="62GbrE6TORd7xZNesTIv-20" value="watch" style="edgeLabel;html=1;align=center;verticalAlign=middle;resizable=0;points=[];" parent="62GbrE6TORd7xZNesTIv-19" vertex="1" connectable="0">
          <mxGeometry x="-0.237" y="-3" relative="1" as="geometry">
            <mxPoint as="offset" />
          </mxGeometry>
        </mxCell>
        <mxCell id="62GbrE6TORd7xZNesTIv-17" value="etcd" style="shape=cylinder3;whiteSpace=wrap;html=1;boundedLbl=1;backgroundOutline=1;size=8.980804443359375;" parent="1" vertex="1">
          <mxGeometry x="510" y="200" width="60" height="40" as="geometry" />
        </mxCell>
        <mxCell id="62GbrE6TORd7xZNesTIv-18" style="edgeStyle=orthogonalEdgeStyle;rounded=0;orthogonalLoop=1;jettySize=auto;html=1;entryX=0.5;entryY=0;entryDx=0;entryDy=0;entryPerimeter=0;" parent="1" source="62GbrE6TORd7xZNesTIv-13" target="62GbrE6TORd7xZNesTIv-17" edge="1">
          <mxGeometry relative="1" as="geometry" />
        </mxCell>
        <mxCell id="62GbrE6TORd7xZNesTIv-22" style="edgeStyle=orthogonalEdgeStyle;rounded=0;orthogonalLoop=1;jettySize=auto;html=1;entryX=0.5;entryY=0;entryDx=0;entryDy=0;entryPerimeter=0;" parent="1" source="62GbrE6TORd7xZNesTIv-9" target="62GbrE6TORd7xZNesTIv-6" edge="1">
          <mxGeometry relative="1" as="geometry" />
        </mxCell>
        <mxCell id="62GbrE6TORd7xZNesTIv-32" style="edgeStyle=orthogonalEdgeStyle;rounded=0;orthogonalLoop=1;jettySize=auto;html=1;" parent="1" source="62GbrE6TORd7xZNesTIv-23" target="62GbrE6TORd7xZNesTIv-10" edge="1">
          <mxGeometry relative="1" as="geometry" />
        </mxCell>
        <mxCell id="kMom09rq4pYjh6CpPgFS-15" style="edgeStyle=orthogonalEdgeStyle;rounded=0;orthogonalLoop=1;jettySize=auto;html=1;entryX=0.5;entryY=0;entryDx=0;entryDy=0;jumpStyle=none;flowAnimation=1;shape=link;width=-4;" edge="1" parent="1" source="62GbrE6TORd7xZNesTIv-23" target="62GbrE6TORd7xZNesTIv-24">
          <mxGeometry relative="1" as="geometry">
            <Array as="points">
              <mxPoint x="390" y="540" />
              <mxPoint x="490" y="540" />
            </Array>
          </mxGeometry>
        </mxCell>
        <mxCell id="62GbrE6TORd7xZNesTIv-23" value="&lt;div style=&quot;&quot;&gt;&lt;font face=&quot;ui-monospace, SFMono-Regular, SF Mono, Menlo, Consolas, Liberation Mono, monospace&quot; color=&quot;rgba(0, 0, 0, 0.88)&quot;&gt;&lt;span style=&quot;font-size: 13.6px; letter-spacing: 0.25px; white-space-collapse: preserve-breaks; background-color: rgba(175, 184, 193, 0.2);&quot;&gt;EventBus&lt;/span&gt;&lt;/font&gt;&lt;/div&gt;" style="rounded=1;whiteSpace=wrap;html=1;align=center;" parent="1" vertex="1">
          <mxGeometry x="300" y="410" width="100" height="40" as="geometry" />
        </mxCell>
        <mxCell id="62GbrE6TORd7xZNesTIv-24" value="&lt;div style=&quot;&quot;&gt;&lt;font face=&quot;ui-monospace, SFMono-Regular, SF Mono, Menlo, Consolas, Liberation Mono, monospace&quot; color=&quot;rgba(0, 0, 0, 0.88)&quot;&gt;&lt;span style=&quot;letter-spacing: 0.25px; white-space-collapse: preserve-breaks; background-color: rgba(175, 184, 193, 0.2);&quot;&gt;&lt;span style=&quot;font-size: 13.6px;&quot;&gt;DeviceTwin&amp;nbsp;&lt;br/&gt;&lt;/span&gt;&lt;span style=&quot;font-family: Inter, -apple-system, BlinkMacSystemFont, &amp;quot;Segoe UI&amp;quot;, &amp;quot;SF Pro SC&amp;quot;, &amp;quot;SF Pro Display&amp;quot;, &amp;quot;SF Pro Icons&amp;quot;, &amp;quot;PingFang SC&amp;quot;, &amp;quot;Hiragino Sans GB&amp;quot;, &amp;quot;Microsoft YaHei&amp;quot;, &amp;quot;Helvetica Neue&amp;quot;, Helvetica, Arial, &amp;quot;Times New Roman&amp;quot;, &amp;quot;Arial Unicode MS&amp;quot;, &amp;quot;Lucida Sans Unicode&amp;quot;, KaTeX_Main, sans-serif; text-align: start; white-space-collapse: collapse; background-color: rgb(228, 228, 228);&quot;&gt;&lt;font style=&quot;font-size: 11px;&quot;&gt;存储设备状态&lt;/font&gt;&lt;/span&gt;&lt;span style=&quot;font-size: 13.6px;&quot;&gt;&amp;nbsp;&lt;/span&gt;&lt;/span&gt;&lt;/font&gt;&lt;/div&gt;" style="rounded=1;whiteSpace=wrap;html=1;align=center;" parent="1" vertex="1">
          <mxGeometry x="440" y="560" width="100" height="40" as="geometry" />
        </mxCell>
        <mxCell id="62GbrE6TORd7xZNesTIv-25" value="sqlite" style="shape=cylinder3;whiteSpace=wrap;html=1;boundedLbl=1;backgroundOutline=1;size=8.980804443359375;" parent="1" vertex="1">
          <mxGeometry x="300" y="570" width="60" height="40" as="geometry" />
        </mxCell>
        <mxCell id="62GbrE6TORd7xZNesTIv-26" value="&lt;div style=&quot;&quot;&gt;&lt;font face=&quot;ui-monospace, SFMono-Regular, SF Mono, Menlo, Consolas, Liberation Mono, monospace&quot; color=&quot;rgba(0, 0, 0, 0.88)&quot;&gt;&lt;span style=&quot;font-size: 13.6px; letter-spacing: 0.25px; white-space-collapse: preserve-breaks; background-color: rgba(175, 184, 193, 0.2);&quot;&gt;EdgeD&lt;/span&gt;&lt;/font&gt;&lt;/div&gt;&lt;div style=&quot;text-align: start;&quot;&gt;&lt;font&gt;&lt;span style=&quot;color: light-dark(rgba(0, 0, 0, 0.88), rgb(237, 237, 237)); font-family: ui-monospace, SFMono-Regular, &amp;quot;SF Mono&amp;quot;, Menlo, Consolas, &amp;quot;Liberation Mono&amp;quot;, monospace; font-size: 13.6px; letter-spacing: 0.25px; white-space-collapse: preserve-breaks; background-color: rgba(175, 184, 193, 0.2);&quot;&gt;(&lt;/span&gt;&lt;span style=&quot;font-size: 8px; background-color: rgba(175, 184, 193, 0.2);&quot;&gt;&lt;font face=&quot;Roboto, sans-serif&quot; color=&quot;#1c1e21&quot;&gt;LW kubelet&lt;/font&gt;&lt;/span&gt;&lt;/font&gt;&lt;span style=&quot;background-color: light-dark(rgba(175, 184, 193, 0.2), rgb(73, 81, 89)); font-size: 13.6px; letter-spacing: 0.25px; white-space-collapse: preserve-breaks; color: light-dark(rgba(0, 0, 0, 0.88), rgb(237, 237, 237)); font-family: ui-monospace, SFMono-Regular, &amp;quot;SF Mono&amp;quot;, Menlo, Consolas, &amp;quot;Liberation Mono&amp;quot;, monospace;&quot;&gt;)&lt;/span&gt;&lt;/div&gt;" style="rounded=1;whiteSpace=wrap;html=1;align=center;" parent="1" vertex="1">
          <mxGeometry x="150" y="570" width="100" height="40" as="geometry" />
        </mxCell>
        <mxCell id="kMom09rq4pYjh6CpPgFS-2" style="edgeStyle=orthogonalEdgeStyle;rounded=0;orthogonalLoop=1;jettySize=auto;html=1;entryX=0.5;entryY=0;entryDx=0;entryDy=0;" edge="1" parent="1" source="62GbrE6TORd7xZNesTIv-27" target="62GbrE6TORd7xZNesTIv-26">
          <mxGeometry relative="1" as="geometry" />
        </mxCell>
        <mxCell id="62GbrE6TORd7xZNesTIv-27" value="&lt;div style=&quot;&quot;&gt;&lt;font face=&quot;ui-monospace, SFMono-Regular, SF Mono, Menlo, Consolas, Liberation Mono, monospace&quot; color=&quot;rgba(0, 0, 0, 0.88)&quot;&gt;&lt;span style=&quot;font-size: 13.6px; letter-spacing: 0.25px; white-space-collapse: preserve-breaks; background-color: rgba(175, 184, 193, 0.2);&quot;&gt;MetaManager&lt;/span&gt;&lt;/font&gt;&lt;/div&gt;" style="rounded=1;whiteSpace=wrap;html=1;align=center;" parent="1" vertex="1">
          <mxGeometry x="150" y="490" width="100" height="40" as="geometry" />
        </mxCell>
        <mxCell id="62GbrE6TORd7xZNesTIv-29" style="edgeStyle=orthogonalEdgeStyle;rounded=0;orthogonalLoop=1;jettySize=auto;html=1;entryX=1;entryY=0.5;entryDx=0;entryDy=0;" parent="1" source="62GbrE6TORd7xZNesTIv-28" target="62GbrE6TORd7xZNesTIv-13" edge="1">
          <mxGeometry relative="1" as="geometry" />
        </mxCell>
        <mxCell id="62GbrE6TORd7xZNesTIv-28" value="" style="shape=actor;whiteSpace=wrap;html=1;" parent="1" vertex="1">
          <mxGeometry x="720" y="140" width="40" height="60" as="geometry" />
        </mxCell>
        <mxCell id="62GbrE6TORd7xZNesTIv-30" value="CRD" style="text;html=1;align=center;verticalAlign=middle;resizable=0;points=[];autosize=1;strokeColor=none;fillColor=none;" parent="1" vertex="1">
          <mxGeometry x="635" y="148" width="50" height="30" as="geometry" />
        </mxCell>
        <mxCell id="62GbrE6TORd7xZNesTIv-36" value="" style="group" parent="1" vertex="1" connectable="0">
          <mxGeometry x="439.995" y="400.005" width="136.67" height="83.23" as="geometry" />
        </mxCell>
        <mxCell id="62GbrE6TORd7xZNesTIv-34" value="" style="shape=cylinder3;whiteSpace=wrap;html=1;boundedLbl=1;backgroundOutline=1;size=6.828120117187382;rotation=-90;" parent="62GbrE6TORd7xZNesTIv-36" vertex="1">
          <mxGeometry x="30.97" y="-26.97" width="48.26" height="110.2" as="geometry" />
        </mxCell>
        <mxCell id="62GbrE6TORd7xZNesTIv-35" value="LW Broker" style="text;html=1;align=center;verticalAlign=middle;whiteSpace=wrap;rounded=0;" parent="62GbrE6TORd7xZNesTIv-36" vertex="1">
          <mxGeometry x="19.68" y="18.13" width="70.84" height="20" as="geometry" />
        </mxCell>
        <mxCell id="62GbrE6TORd7xZNesTIv-39" style="edgeStyle=orthogonalEdgeStyle;rounded=0;orthogonalLoop=1;jettySize=auto;html=1;entryX=1;entryY=0.5;entryDx=0;entryDy=0;" parent="1" source="62GbrE6TORd7xZNesTIv-34" target="62GbrE6TORd7xZNesTIv-23" edge="1">
          <mxGeometry relative="1" as="geometry" />
        </mxCell>
        <mxCell id="kMom09rq4pYjh6CpPgFS-5" style="edgeStyle=orthogonalEdgeStyle;rounded=0;orthogonalLoop=1;jettySize=auto;html=1;entryX=1;entryY=0.5;entryDx=0;entryDy=0;" edge="1" parent="1" source="62GbrE6TORd7xZNesTIv-41" target="kMom09rq4pYjh6CpPgFS-4">
          <mxGeometry relative="1" as="geometry">
            <Array as="points">
              <mxPoint x="705" y="503" />
            </Array>
          </mxGeometry>
        </mxCell>
        <mxCell id="kMom09rq4pYjh6CpPgFS-6" value="http" style="edgeLabel;html=1;align=center;verticalAlign=middle;resizable=0;points=[];" vertex="1" connectable="0" parent="kMom09rq4pYjh6CpPgFS-5">
          <mxGeometry x="-0.1754" y="1" relative="1" as="geometry">
            <mxPoint as="offset" />
          </mxGeometry>
        </mxCell>
        <mxCell id="62GbrE6TORd7xZNesTIv-41" value="client" style="fillColor=#ffffff;strokeColor=#dddddd;shadow=1;strokeWidth=1;rounded=1;absoluteArcSize=1;arcSize=2;labelPosition=center;verticalLabelPosition=middle;align=center;verticalAlign=bottom;spacingLeft=0;fontColor=#999999;fontSize=12;whiteSpace=wrap;spacingBottom=2;html=1;" parent="1" vertex="1">
          <mxGeometry x="705" y="433.23" width="70" height="90" as="geometry" />
        </mxCell>
        <mxCell id="62GbrE6TORd7xZNesTIv-42" value="" style="sketch=0;dashed=0;connectable=0;html=1;fillColor=#757575;strokeColor=none;shape=mxgraph.gcp2.circuit_board;part=1;" parent="62GbrE6TORd7xZNesTIv-41" vertex="1">
          <mxGeometry x="0.5" width="50" height="45" relative="1" as="geometry">
            <mxPoint x="-25" y="12.5" as="offset" />
          </mxGeometry>
        </mxCell>
        <mxCell id="62GbrE6TORd7xZNesTIv-43" style="edgeStyle=orthogonalEdgeStyle;rounded=0;orthogonalLoop=1;jettySize=auto;html=1;entryX=0.5;entryY=1;entryDx=0;entryDy=0;entryPerimeter=0;" parent="1" source="62GbrE6TORd7xZNesTIv-41" target="62GbrE6TORd7xZNesTIv-34" edge="1">
          <mxGeometry relative="1" as="geometry" />
        </mxCell>
        <mxCell id="kMom09rq4pYjh6CpPgFS-7" value="mqtt" style="edgeLabel;html=1;align=center;verticalAlign=middle;resizable=0;points=[];" vertex="1" connectable="0" parent="62GbrE6TORd7xZNesTIv-43">
          <mxGeometry x="-0.4852" y="-2" relative="1" as="geometry">
            <mxPoint as="offset" />
          </mxGeometry>
        </mxCell>
        <mxCell id="kMom09rq4pYjh6CpPgFS-3" style="edgeStyle=orthogonalEdgeStyle;rounded=0;orthogonalLoop=1;jettySize=auto;html=1;entryX=0;entryY=0.5;entryDx=0;entryDy=0;entryPerimeter=0;" edge="1" parent="1" source="62GbrE6TORd7xZNesTIv-26" target="62GbrE6TORd7xZNesTIv-25">
          <mxGeometry relative="1" as="geometry" />
        </mxCell>
        <mxCell id="kMom09rq4pYjh6CpPgFS-8" style="edgeStyle=orthogonalEdgeStyle;rounded=0;orthogonalLoop=1;jettySize=auto;html=1;entryX=1;entryY=0.5;entryDx=0;entryDy=0;" edge="1" parent="1" source="kMom09rq4pYjh6CpPgFS-4" target="62GbrE6TORd7xZNesTIv-10">
          <mxGeometry relative="1" as="geometry">
            <Array as="points">
              <mxPoint x="290" y="503" />
              <mxPoint x="290" y="430" />
            </Array>
          </mxGeometry>
        </mxCell>
        <mxCell id="kMom09rq4pYjh6CpPgFS-16" value="http" style="edgeLabel;html=1;align=center;verticalAlign=middle;resizable=0;points=[];" vertex="1" connectable="0" parent="kMom09rq4pYjh6CpPgFS-8">
          <mxGeometry x="-0.2367" y="-2" relative="1" as="geometry">
            <mxPoint as="offset" />
          </mxGeometry>
        </mxCell>
        <mxCell id="kMom09rq4pYjh6CpPgFS-4" value="&lt;div style=&quot;&quot;&gt;&lt;font face=&quot;ui-monospace, SFMono-Regular, SF Mono, Menlo, Consolas, Liberation Mono, monospace&quot; color=&quot;rgba(0, 0, 0, 0.88)&quot;&gt;&lt;span style=&quot;font-size: 13.6px; letter-spacing: 0.25px; white-space-collapse: preserve-breaks; background-color: rgba(175, 184, 193, 0.2);&quot;&gt;ServiceBus&lt;/span&gt;&lt;/font&gt;&lt;/div&gt;" style="rounded=1;whiteSpace=wrap;html=1;align=center;" vertex="1" parent="1">
          <mxGeometry x="430" y="483.23" width="100" height="40" as="geometry" />
        </mxCell>
        <mxCell id="kMom09rq4pYjh6CpPgFS-10" style="edgeStyle=orthogonalEdgeStyle;rounded=0;orthogonalLoop=1;jettySize=auto;html=1;entryX=1;entryY=0;entryDx=0;entryDy=25.509597778320312;entryPerimeter=0;shape=link;" edge="1" parent="1" source="62GbrE6TORd7xZNesTIv-24" target="62GbrE6TORd7xZNesTIv-25">
          <mxGeometry relative="1" as="geometry">
            <Array as="points">
              <mxPoint x="490" y="620" />
              <mxPoint x="400" y="620" />
              <mxPoint x="400" y="596" />
            </Array>
          </mxGeometry>
        </mxCell>
      </root>
    </mxGraphModel>
  </diagram>
</mxfile>
